<?xml version="1.0" standalone="no"?>
<!DOCTYPE svg PUBLIC "-//W3C//DTD SVG 20010904//EN"
 "http://www.w3.org/TR/2001/REC-SVG-20010904/DTD/svg10.dtd">
<svg version="1.0" xmlns="http://www.w3.org/2000/svg"
 width="512.000000pt" height="512.000000pt" viewBox="0 0 512.000000 512.000000"
 preserveAspectRatio="xMidYMid meet">
<metadata>
Created by potrace 1.15, written by Peter Selinger 2001-2017
</metadata>
<g transform="translate(0.000000,512.000000) scale(0.100000,-0.100000)"
fill="#000000" stroke="none">
<path d="M1777 4709 c-173 -19 -332 -148 -399 -325 l-23 -59 0 -1760 0 -1760
28 -77 c52 -141 179 -260 326 -305 50 -15 127 -17 781 -19 399 -2 769 1 822 6
112 10 180 36 266 102 65 50 134 145 165 225 l22 58 0 1765 0 1765 -29 70
c-16 39 -42 89 -57 111 -73 107 -207 186 -344 203 -92 11 -1454 11 -1558 0z
m489 -317 c17 -12 25 -42 14 -61 -6 -11 -26 -20 -53 -24 -100 -14 -156 18
-122 69 14 21 22 24 83 24 37 0 72 -4 78 -8z m774 -12 c16 -16 18 -25 10 -40
-5 -10 -16 -22 -22 -27 -22 -13 -597 -6 -614 8 -19 15 -18 38 3 61 15 17 38
18 310 18 281 0 294 -1 313 -20z m410 -1664 l0 -1423 -37 -5 c-31 -4 -1591 -3
-1710 1 l-33 1 0 1425 0 1425 890 0 890 0 0 -1424z m-817 -1598 c55 -17 122
-82 136 -133 19 -68 13 -107 -21 -165 -59 -97 -165 -129 -266 -78 -129 64
-150 245 -38 334 64 51 118 63 189 42z"/>
<path d="M2360 3166 c0 -168 -2 -306 -5 -306 -3 0 -27 16 -54 35 -26 19 -51
35 -55 35 -3 0 -28 16 -55 35 l-49 36 -20 -28 c-49 -71 -53 -63 73 -144 63
-41 115 -76 115 -79 0 -3 -48 -36 -106 -75 -59 -38 -108 -75 -111 -82 -8 -20
45 -95 60 -86 7 5 55 36 107 71 l95 62 3 -306 c1 -171 6 -304 11 -302 18 7
621 403 621 409 0 3 -48 37 -107 76 -60 39 -163 107 -231 151 l-122 81 187
123 c104 68 207 136 231 151 23 15 42 31 42 35 -1 4 -22 20 -48 36 -43 27
-136 88 -447 291 -60 40 -116 75 -122 79 -10 6 -13 -57 -13 -298z m249 10 c69
-45 139 -91 155 -100 l28 -18 -95 -64 c-53 -35 -125 -81 -161 -104 l-66 -40 0
205 c0 113 3 205 6 205 4 0 63 -38 133 -84z m31 -635 c73 -48 135 -92 137 -97
3 -9 -256 -186 -290 -200 -16 -6 -17 11 -17 200 0 194 1 206 18 196 9 -6 78
-50 152 -99z"/>
<path d="M2535 1026 c-51 -23 -70 -52 -70 -108 0 -45 4 -53 35 -79 48 -41 110
-41 150 0 51 50 52 107 2 160 -32 35 -76 45 -117 27z"/>
</g>
</svg>
